<svg xmlns="http://www.w3.org/2000/svg" version="1.1" xmlns:xlink="http://www.w3.org/1999/xlink" xmlns:svgjs="http://svgjs.dev/svgjs" width="1500" height="1500" viewBox="0 0 1500 1500"><rect width="1500" height="1500" fill="#432818"></rect><g transform="matrix(0.6666666666666666,0,0,0.6666666666666666,250,250.00036424866857)"><svg viewBox="0 0 280 280" data-background-color="#432818" preserveAspectRatio="xMidYMid meet" height="1500" width="1500" xmlns="http://www.w3.org/2000/svg" xmlns:xlink="http://www.w3.org/1999/xlink"><g id="tight-bounds" transform="matrix(1,0,0,1,0,-0.00008551037279858065)"><svg viewBox="0 0 280 280" height="280" width="280"><g><svg viewBox="0 0 280 280" height="280" width="280"><g><svg viewBox="0 0 280 280" height="280" width="280"><g id="textblocktransform"><svg viewBox="0 0 280 280" height="280" width="280" id="textblock"><g><svg viewBox="0 0 280 280" height="280" width="280"><g transform="matrix(1,0,0,1,90.50252531694167,93.02558056127317)"><svg viewBox="0 0 98.99494936611666 93.94883887745365" height="93.94883887745365" width="98.99494936611666"><g id="icon-0"><svg xmlns:x="http://ns.adobe.com/Extensibility/1.0/" xmlns:i="http://ns.adobe.com/AdobeIllustrator/10.0/" xmlns:graph="http://ns.adobe.com/Graphs/1.0/" xmlns="http://www.w3.org/2000/svg" xmlns:xlink="http://www.w3.org/1999/xlink" xmlns:a="http://ns.adobe.com/AdobeSVGViewerExtensions/3.0/" version="1.1" baseProfile="basic" x="0" y="0" viewBox="4.999999999999963 7 90.28198073584075 85.68" xml:space="preserve" height="93.94883887745365" width="98.99494936611666" class="icon-xg-0" data-fill-palette-color="accent" id="xg-0"><g fill="#ffffff" data-fill-palette-color="accent"><g fill="#ffffff" data-fill-palette-color="accent"><path fill-rule="evenodd" clip-rule="evenodd" d="M27.8 7c0.08 0 0.16 0 0.24 0 3.782 8.218 8.224 15.776 12 24 6.381-0.5 13.83 0.07 20.16-0.48C64.254 22.813 68.174 14.973 71.96 7c0.08 0 0.16 0 0.24 0 7.237 17.172 21.862 33.197 23.04 56.16 0.241 4.696-0.587 8.264-1.68 12.24-4.015 0.306-9.261-0.621-12.48 0.479 1.035 1.296 3.424 0.721 5.521 0.721 2.093 0 4.413 0 6.239 0-0.838 2.361-2.18 4.22-3.84 5.76-3.039-0.208-6.306-2.591-8.88-1.681 1.859 1.661 5.277 1.764 7.92 2.641-1.594 1.446-3.442 2.638-5.52 3.6-1.924-0.636-2.944-2.176-5.04-2.64-0.549 1.868 2.394 1.999 3.359 3.12-8.327 4.393-19.208 1.431-24-5.04-0.794-1.073-1.03-2.364-1.439-3.36-2.436 3.593-5.646 6.279-10.32 8.641-6.24 3.151-11.692 4.345-18.96 1.199 2.201-1.959 5.494-2.825 7.44-5.04-2.929-0.438-6.17 3.498-9.36 4.561-2.765-1.155-5.445-2.395-7.92-3.84 4.169-2.231 10.464-2.337 14.4-4.801-0.732-1.116-2.44-0.08-3.6 0.24-3.561 0.982-8.259 2.354-12 3.36-3.046-1.754-5.072-4.528-6.96-7.44 6.196-0.872 14.938 0.549 21.12-0.72-0.593-1.306-3.322-0.72-5.04-0.72-5.187 0-11.452 0-16.8 0-1.154-2.446-1.785-5.415-2.4-8.4 0-2.32 0-4.64 0-6.96C8.612 37.732 20.173 24.333 27.8 7zM15.08 35.32c5.439-3.361 12.757-4.843 21.36-5.04-2.758-7.242-5.683-14.318-9.12-20.88C23.27 18.07 18.997 26.517 15.08 35.32zM63.08 30.28c8.713 0.007 16.575 2.145 21.6 5.04-4.483-8.396-8.175-17.584-12.72-25.92C68.947 16.149 65.377 23.614 63.08 30.28zM32.36 61.96c4.751-0.141 4.103-16.594-0.72-15.12C27.843 48.001 28.048 62.088 32.36 61.96zM72.92 59.8c4.796-0.21 4.04-14.687-0.96-12.96C68.407 48.067 68.26 60.004 72.92 59.8zM55.64 78.04c2.686-5.315 5.897-10.104 8.641-15.36-5.681 0.16-12-0.319-17.28 0.24C50.132 67.708 52.521 73.24 55.64 78.04z" fill="#ffffff" data-fill-palette-color="accent"></path><path fill-rule="evenodd" clip-rule="evenodd" d="M47 92.68c-3.04 0-6.08 0-9.12 0 5.233-1.309 9.748-3.471 13.681-6.479 0.828-0.634 3.181-3.151 3.6-3.12-0.026-0.002 2.421 2.446 2.64 2.64 3.234 2.859 6.17 4.809 10.32 6C61.367 92.327 53.867 92.188 47 92.68z" fill="#ffffff" data-fill-palette-color="accent"></path></g></g></svg></g></svg></g><g id="text-0"><path d="M19.201 109.89v0c-2.685-0.886-4.666-2.381-5.942-4.487v0c-1.365-2.281-1.611-4.746-0.738-7.394v0c0.746-2.263 1.787-3.838 3.121-4.726v0c0.377-0.274 0.745-0.352 1.105-0.233 0.353 0.116 0.601 0.307 0.745 0.571 0.15 0.266 0.182 0.528 0.096 0.787-0.085 0.258-0.2 0.437-0.344 0.536v0c-1.116 0.988-1.879 2.169-2.291 3.543v0c-0.586 1.778-0.383 3.386 0.61 4.824v0c0.983 1.575 2.543 2.715 4.68 3.421v0c1.967 0.649 3.764 0.794 5.392 0.436v0c1.871-0.459 3.158-1.754 3.86-3.884v0c0.385-1.166 0.45-2.721 0.196-4.664v0c-0.109-0.539 0.083-0.909 0.576-1.11v0c0.258-0.125 0.557-0.131 0.897-0.018 0.34 0.112 0.612 0.433 0.816 0.961 0.195 0.533 0.294 1.121 0.298 1.765v0c0.015 1.585-0.201 3.037-0.651 4.356-0.456 1.317-1.103 2.432-1.941 3.343-0.837 0.905-1.842 1.559-3.017 1.962v0c-2.268 0.901-4.758 0.905-7.468 0.011z" fill="#ffffff" data-fill-palette-color="primary"></path><path d="M40.734 63.585v0c0.426-0.568 0.871-1.127 1.333-1.676v0l-1.314-0.986c-2.123-1.594-4.074-1.207-5.851 1.16v0c-0.797 1.062-1.283 1.908-1.458 2.541v0c-0.324 1.118-0.516 1.953-0.575 2.506-0.053 0.558-0.162 0.945-0.325 1.163-0.163 0.218-0.399 0.36-0.707 0.428-0.308 0.068-0.597 0-0.868-0.203v0c-0.218-0.163-0.344-0.449-0.378-0.857v0c-0.266-2.2 0.541-4.552 2.422-7.058v0c2.167-2.888 4.524-4.015 7.07-3.382v0c0.888 0.243 1.781 0.702 2.678 1.375v0l9.376 7.161c0.35 0.263 0.527 0.591 0.531 0.984 0.008 0.388-0.1 0.73-0.323 1.027-0.227 0.303-0.515 0.514-0.862 0.635-0.348 0.121-0.71 0.04-1.088-0.243v0l-1.473-1.106c0.927 1.717 0.933 3.551 0.016 5.502v0c-0.248 0.619-0.618 1.254-1.107 1.907-0.49 0.653-1.072 1.229-1.745 1.728-0.669 0.494-1.393 0.834-2.173 1.021v0c-1.601 0.375-3.121 0.023-4.56-1.057v0c-3.435-2.578-2.974-6.768 1.381-12.57zM45.252 64.299l-1.394-1.046c-0.274 0.475-0.626 0.999-1.056 1.573-0.426 0.568-0.857 1.158-1.291 1.77-0.434 0.612-0.794 1.234-1.078 1.867-0.288 0.638-0.474 1.267-0.556 1.886v0c-0.205 1.29 0.228 2.383 1.299 3.278v0c0.876 0.657 1.825 0.814 2.848 0.469v0c0.842-0.215 1.654-0.816 2.437-1.806v0c0.92-1.226 1.322-2.585 1.205-4.075v0c-0.146-1.387-0.95-2.692-2.414-3.916z" fill="#ffffff" data-fill-palette-color="primary"></path><path d="M79.195 43.494v0c0.583 0.839-0.117 1.948-2.101 3.327v0c-1.482 1.03-2.811 1.352-3.986 0.964v0c-1.273-0.401-2.628-1.572-4.067-3.515v0l-6.12-8.805-1.839 1.279c-0.338 0.235-0.677 0.317-1.017 0.246-0.344-0.076-0.594-0.226-0.749-0.45v0c-0.155-0.223-0.226-0.506-0.213-0.846 0.014-0.341 0.217-0.648 0.61-0.921v0l2.011-1.397-2.985-4.643c-0.171-0.374-0.194-0.738-0.068-1.093 0.122-0.36 0.322-0.636 0.6-0.829 0.278-0.193 0.574-0.273 0.888-0.241 0.314 0.033 0.595 0.229 0.845 0.589v0l3.148 4.529 2.894-2.011c0.338-0.235 0.674-0.303 1.01-0.205 0.335 0.098 0.58 0.259 0.735 0.483v0c0.197 0.283 0.268 0.578 0.213 0.882-0.055 0.305-0.251 0.575-0.589 0.81v0l-2.894 2.011 5.159 7.424c1.436 2.066 2.376 3.267 2.821 3.605 0.441 0.332 0.873 0.477 1.295 0.433 0.423-0.043 0.857-0.22 1.305-0.531v0l1.549-1.259c0.311-0.216 0.619-0.284 0.924-0.205 0.296 0.077 0.503 0.2 0.621 0.369z" fill="#ffffff" data-fill-palette-color="primary"></path><path d="M102.289 16.114l-3.142 1.057 4.951 14.711c0.163 0.484 0.132 0.901-0.094 1.25-0.228 0.343-0.486 0.563-0.776 0.66-0.289 0.097-0.531 0.151-0.723 0.16-0.191 0.015-0.38-0.037-0.567-0.156v0c-0.397-0.118-0.661-0.425-0.793-0.92v0l-4.951-14.711-2.567 0.864c-0.384 0.129-0.711 0.113-0.982-0.048-0.271-0.161-0.456-0.386-0.553-0.675v0c-0.076-0.226-0.06-0.501 0.048-0.825 0.108-0.324 0.354-0.55 0.738-0.679v0l2.566-0.864-0.682-2.029c-1.118-3.321-0.915-5.652 0.609-6.991v0c0.503-0.421 1.046-0.73 1.631-0.927v0c1.032-0.347 2.138-0.524 3.32-0.529v0c0.55 0.032 0.901 0.274 1.054 0.727v0c0.087 0.258 0.089 0.534 0.006 0.828-0.075 0.298-0.25 0.494-0.528 0.587-0.277 0.093-0.491 0.155-0.641 0.185-0.149 0.036-0.298 0.041-0.447 0.014v0c-0.38 0.058-0.787 0.16-1.221 0.306-0.434 0.146-0.766 0.356-0.996 0.629-0.228 0.28-0.375 0.644-0.441 1.094v0c-0.05 0.703 0.315 2.216 1.096 4.537v0l0.194 0.575 3.142-1.057c0.39-0.131 0.727-0.119 1.011 0.038 0.284 0.157 0.474 0.38 0.571 0.669 0.097 0.289 0.08 0.582-0.05 0.878-0.131 0.296-0.392 0.51-0.783 0.642z" fill="#ffffff" data-fill-palette-color="primary"></path><path d="M133.593 1.575v0c0.042 0.543-0.109 1-0.453 1.373-0.351 0.367-0.864 0.576-1.539 0.629-0.682 0.053-1.221-0.075-1.618-0.384-0.404-0.315-0.627-0.744-0.669-1.286v0c-0.036-0.47 0.121-0.891 0.471-1.265 0.344-0.366 0.864-0.576 1.559-0.63 0.695-0.054 1.234 0.074 1.618 0.384 0.384 0.316 0.594 0.71 0.631 1.179zM131.834 26.397l-1.256-16.19c-0.04-0.51 0.098-0.92 0.413-1.23 0.315-0.317 0.608-0.487 0.88-0.508 0.271-0.021 0.496 0.005 0.675 0.078 0.179 0.073 0.357 0.189 0.536 0.347v0c0.395 0.202 0.613 0.558 0.652 1.068v0l1.256 16.19c0.04 0.51-0.103 0.907-0.427 1.191-0.318 0.278-0.679 0.432-1.082 0.464v0c-0.41 0.032-0.777-0.066-1.101-0.294-0.324-0.234-0.506-0.606-0.546-1.116z" fill="#ffffff" data-fill-palette-color="primary"></path><path d="M160.113 28.095l3.55-16.101c0.096-0.434 0.338-0.748 0.728-0.941 0.389-0.193 0.752-0.252 1.089-0.177v0c0.694 0.153 1.082 0.517 1.166 1.093 0.084 0.576-0.043 1.384-0.382 2.424v0c0.621-0.903 1.676-1.574 3.167-2.014v0c1.307-0.378 2.531-0.441 3.671-0.19 1.147 0.253 2.088 0.61 2.822 1.071 0.741 0.462 1.376 1.065 1.906 1.807v0c1.05 1.557 1.304 3.564 0.762 6.02v0l-2.33 10.569c-0.103 0.467-0.355 0.778-0.757 0.934-0.395 0.158-0.777 0.196-1.146 0.114v0c-0.395-0.087-0.718-0.288-0.969-0.601-0.242-0.319-0.316-0.695-0.22-1.129v0l2.374-10.763c0.344-1.562 0.178-2.856-0.5-3.882v0c-0.621-0.973-1.532-1.592-2.731-1.856v0c-1.594-0.352-3.059-0.185-4.392 0.499v0c-1.354 0.748-2.259 2.153-2.714 4.214v0l-2.109 9.567c-0.103 0.467-0.345 0.78-0.728 0.94-0.382 0.16-0.774 0.196-1.176 0.108v0c-0.395-0.087-0.699-0.283-0.91-0.588-0.21-0.311-0.267-0.684-0.171-1.118z" fill="#ffffff" data-fill-palette-color="primary"></path><path d="M210.131 49.597l0.971-1.494c-2.741 1.101-5.339 0.854-7.794-0.741v0c-2.227-1.446-3.394-3.463-3.502-6.05v0c-0.048-2.303 0.669-4.595 2.152-6.877v0c2.487-3.83 5.428-5.572 8.821-5.228v0c1.175 0.067 2.197 0.382 3.066 0.946 0.868 0.564 1.557 1.082 2.065 1.555 0.508 0.473 0.924 1.02 1.248 1.642v0c0.735 1.245 1.08 2.522 1.037 3.832v0l5.505-8.475c0.278-0.429 0.622-0.641 1.031-0.636 0.407-0.005 0.78 0.103 1.119 0.323v0c0.345 0.224 0.584 0.514 0.718 0.87 0.137 0.35 0.066 0.739-0.213 1.168v0l-13.569 20.89c-0.26 0.401-0.597 0.609-1.011 0.625-0.414 0.016-0.735-0.05-0.964-0.198-0.228-0.148-0.409-0.297-0.541-0.447-0.131-0.14-0.218-0.328-0.263-0.563v0c-0.159-0.388-0.118-0.769 0.124-1.142zM205.125 45.681v0c3.484 2.263 6.682 1.154 9.592-3.327v0c1.873-2.883 2.225-5.333 1.058-7.35v0c-0.433-0.772-1.105-1.454-2.018-2.047-0.913-0.593-1.787-0.904-2.624-0.932-0.827-0.031-1.634 0.122-2.422 0.457v0c-1.436 0.65-2.71 1.833-3.823 3.547v0c-1.649 2.538-2.265 4.797-1.849 6.777v0c0.222 1.157 0.917 2.115 2.086 2.875z" fill="#ffffff" data-fill-palette-color="primary"></path><path d="M247.334 77.081v0c-0.574 0.429-1.132 0.336-1.674-0.279v0l-8.367-11.209c-2.702 2.183-3.689 4.617-2.96 7.303v0c0.237 0.717 0.63 1.443 1.178 2.177v0c1.139 1.527 2.859 2.666 5.159 3.416v0c0.642 0.283 0.921 0.712 0.837 1.289v0c-0.046 0.283-0.171 0.459-0.375 0.529v0c-0.378 0.282-0.72 0.389-1.029 0.32v0c-2.62-0.38-4.831-1.806-6.634-4.279v0c-1.671-2.239-2.292-4.58-1.862-7.021v0c0.361-2.646 1.767-4.884 4.219-6.715v0c2.266-1.691 4.604-2.459 7.014-2.303v0c2.615 0.086 4.818 1.328 6.608 3.727v0c1.791 2.399 2.431 4.766 1.922 7.101v0c-0.411 2.179-1.757 4.16-4.036 5.944zM239.028 64.422l7.235 9.694c1.414-1.18 2.271-2.561 2.573-4.144v0c0.266-1.474-0.17-2.975-1.31-4.501v0c-0.977-1.308-2.304-2.061-3.984-2.257v0c-1.615-0.111-3.12 0.292-4.514 1.208z" fill="#ffffff" data-fill-palette-color="primary"></path><path d="M266.818 101.594l-1.64 0.556c2.55-0.003 4.269 1.303 5.155 3.918v0c0.164 0.484 0.148 0.892-0.047 1.225-0.193 0.339-0.441 0.56-0.743 0.662-0.308 0.104-0.642 0.081-1.001-0.07-0.351-0.147-0.637-0.544-0.856-1.192-0.217-0.641-0.565-1.242-1.042-1.802-0.475-0.554-1.026-0.959-1.653-1.216v0c-1.359-0.513-2.908-0.475-4.65 0.115v0l-9.089 3.083c-0.453 0.153-0.846 0.108-1.182-0.136-0.335-0.244-0.546-0.495-0.633-0.752-0.087-0.258-0.134-0.477-0.139-0.657-0.011-0.178 0.038-0.374 0.148-0.587v0c0.097-0.355 0.371-0.61 0.824-0.763v0l15.567-5.279c0.421-0.143 0.816-0.116 1.184 0.082 0.375 0.195 0.635 0.51 0.782 0.944 0.147 0.434 0.124 0.82-0.069 1.159-0.189 0.331-0.494 0.567-0.916 0.71z" fill="#ffffff" data-fill-palette-color="primary"></path><path d="M19.206 178.447v0c2.728-0.903 5.252-0.882 7.571 0.063v0c2.489 1.036 4.179 2.899 5.07 5.59v0c0.761 2.3 0.868 4.215 0.319 5.746v0c-0.144 0.453-0.395 0.739-0.754 0.858-0.359 0.119-0.679 0.113-0.961-0.018-0.279-0.124-0.462-0.319-0.549-0.583-0.086-0.258-0.1-0.47-0.043-0.636v0c0.305-1.485 0.214-2.913-0.275-4.283v0c-0.599-1.808-1.741-3-3.427-3.574v0c-1.76-0.69-3.723-0.676-5.891 0.041v0c-2.004 0.663-3.56 1.633-4.669 2.909v0c-1.248 1.511-1.513 3.35-0.795 5.518v0c0.39 1.178 1.28 2.485 2.671 3.919v0c0.411 0.374 0.476 0.793 0.196 1.256v0c-0.137 0.262-0.376 0.449-0.716 0.562-0.347 0.115-0.764 0.015-1.252-0.298-0.482-0.316-0.922-0.737-1.32-1.262v0c-0.969-1.28-1.667-2.598-2.095-3.953-0.432-1.346-0.581-2.643-0.448-3.889 0.139-1.249 0.564-2.393 1.276-3.432v0c1.308-2.111 3.339-3.622 6.092-4.534z" fill="#ffffff" data-fill-palette-color="primary"></path><path d="M44.234 222.328v0c0.435 0.578 0.858 1.169 1.271 1.772v0l1.328-0.999c2.154-1.62 2.325-3.634 0.514-6.042v0c-0.81-1.077-1.498-1.793-2.063-2.148v0c-0.996-0.629-1.757-1.05-2.282-1.262-0.525-0.212-0.871-0.429-1.038-0.651-0.168-0.223-0.241-0.492-0.22-0.806 0.017-0.32 0.163-0.584 0.439-0.792v0c0.223-0.168 0.539-0.21 0.949-0.128v0c2.219 0.366 4.285 1.822 6.201 4.368v0c2.202 2.928 2.635 5.547 1.298 7.856v0c-0.482 0.794-1.179 1.535-2.092 2.221v0l-9.646 7.117c-0.361 0.271-0.733 0.356-1.117 0.254-0.378-0.106-0.681-0.31-0.908-0.612-0.227-0.302-0.353-0.64-0.376-1.013-0.018-0.377 0.167-0.711 0.554-1.002v0l1.488-1.119c-1.936 0.418-3.729-0.094-5.378-1.536v0c-0.533-0.421-1.049-0.964-1.547-1.627-0.503-0.668-0.899-1.4-1.19-2.195-0.3-0.796-0.428-1.596-0.385-2.401v0c0.089-1.67 0.866-3.056 2.33-4.156v0c3.485-2.621 7.442-0.987 11.87 4.901zM42.266 226.536l1.416-1.066c-0.389-0.396-0.804-0.886-1.242-1.469-0.435-0.578-0.89-1.166-1.364-1.765-0.469-0.602-0.975-1.131-1.518-1.587-0.537-0.46-1.098-0.819-1.682-1.077v0c-1.205-0.564-2.392-0.448-3.561 0.349v0c-0.886 0.666-1.309 1.545-1.269 2.636v0c-0.031 0.887 0.326 1.852 1.069 2.896v0c0.937 1.247 2.15 2.025 3.637 2.335v0c1.397 0.245 2.902-0.172 4.514-1.252z" fill="#ffffff" data-fill-palette-color="primary"></path><path d="M69.519 259.132v0c-0.594 0.856-1.9 0.584-3.918-0.816v0c-1.505-1.044-2.286-2.196-2.341-3.454v0c-0.069-1.356 0.57-3.062 1.915-5.118v0l6.214-8.957-1.881-1.305c-0.338-0.235-0.534-0.528-0.588-0.881-0.049-0.349 0.006-0.638 0.165-0.867v0c0.155-0.224 0.397-0.391 0.724-0.503 0.328-0.112 0.691-0.03 1.089 0.247v0l2.054 1.424 3.358-4.492c0.295-0.296 0.634-0.449 1.02-0.456 0.385-0.008 0.719 0.087 1.003 0.284 0.284 0.197 0.465 0.448 0.543 0.753 0.081 0.315-0.006 0.654-0.259 1.02v0l-3.195 4.605 2.945 2.043c0.338 0.235 0.52 0.531 0.547 0.889 0.026 0.358-0.038 0.648-0.193 0.872v0c-0.197 0.284-0.452 0.454-0.766 0.51-0.314 0.057-0.64-0.032-0.979-0.267v0l-2.944-2.043-5.239 7.55c-1.46 2.105-2.271 3.425-2.432 3.96-0.165 0.54-0.15 1.002 0.044 1.387 0.195 0.394 0.519 0.748 0.971 1.062v0l1.752 1.021c0.316 0.219 0.489 0.489 0.518 0.808 0.033 0.314-0.009 0.555-0.127 0.724z" fill="#ffffff" data-fill-palette-color="primary"></path><path d="M107.109 258.165l-3.199-1.077-5.033 14.957c-0.165 0.491-0.446 0.806-0.843 0.945-0.391 0.142-0.734 0.163-1.03 0.063-0.296-0.099-0.526-0.205-0.691-0.317-0.159-0.11-0.277-0.268-0.355-0.476v0c-0.251-0.337-0.278-0.745-0.081-1.225v0l5.032-14.956-2.614-0.88c-0.39-0.131-0.644-0.343-0.763-0.635-0.123-0.3-0.135-0.599-0.035-0.894v0c0.076-0.226 0.259-0.438 0.549-0.635 0.284-0.199 0.621-0.232 1.011-0.101v0l2.614 0.88 0.696-2.067c1.137-3.378 2.731-5.139 4.781-5.282v0c0.67-0.034 1.3 0.049 1.892 0.248v0c1.051 0.353 2.057 0.892 3.018 1.614v0c0.423 0.366 0.557 0.779 0.402 1.239v0c-0.087 0.258-0.253 0.482-0.499 0.672-0.248 0.197-0.511 0.248-0.788 0.155-0.283-0.095-0.494-0.177-0.632-0.244-0.145-0.07-0.269-0.157-0.374-0.262v0c-0.342-0.192-0.733-0.362-1.173-0.511-0.44-0.148-0.839-0.181-1.196-0.097-0.357 0.083-0.702 0.286-1.034 0.608v0c-0.467 0.536-1.099 1.987-1.895 4.352v0l-0.197 0.585 3.199 1.076c0.39 0.131 0.653 0.349 0.788 0.654 0.138 0.298 0.157 0.595 0.057 0.891-0.099 0.296-0.295 0.524-0.587 0.685-0.29 0.154-0.63 0.166-1.02 0.035z" fill="#ffffff" data-fill-palette-color="primary"></path><path d="M136.093 253.675v0c-0.044 0.556-0.268 0.991-0.672 1.305-0.411 0.314-0.96 0.444-1.649 0.389-0.688-0.054-1.207-0.268-1.557-0.642-0.357-0.374-0.513-0.839-0.469-1.395v0c0.038-0.483 0.263-0.881 0.673-1.195 0.404-0.314 0.96-0.444 1.669-0.388 0.708 0.056 1.227 0.27 1.557 0.642 0.337 0.373 0.486 0.801 0.448 1.284zM130.404 278.323l1.298-16.456c0.041-0.516 0.245-0.906 0.611-1.17 0.368-0.271 0.69-0.395 0.969-0.373 0.271 0.021 0.49 0.082 0.654 0.182 0.172 0.1 0.337 0.243 0.496 0.428v0c0.358 0.275 0.516 0.67 0.476 1.186v0l-1.298 16.456c-0.041 0.516-0.243 0.89-0.608 1.121-0.364 0.231-0.755 0.33-1.172 0.297v0c-0.41-0.032-0.761-0.19-1.051-0.473-0.291-0.283-0.416-0.682-0.375-1.198z" fill="#ffffff" data-fill-palette-color="primary"></path><path d="M163.377 276.547l-3.581-16.379c-0.095-0.434-0.004-0.825 0.274-1.171 0.278-0.346 0.585-0.556 0.922-0.629v0c0.713-0.156 1.23 0.016 1.551 0.517 0.319 0.494 0.545 1.294 0.677 2.399v0c0.186-1.107 0.876-2.179 2.069-3.214v0c1.04-0.9 2.143-1.478 3.311-1.732 1.167-0.255 2.187-0.329 3.06-0.221 0.873 0.108 1.713 0.393 2.521 0.855v0c1.636 0.988 2.727 2.733 3.274 5.236v0l2.35 10.747c0.103 0.473 0.003 0.869-0.301 1.187-0.306 0.311-0.643 0.508-1.013 0.589v0c-0.409 0.089-0.793 0.041-1.153-0.146-0.36-0.186-0.588-0.5-0.684-0.941v0l-2.395-10.951c-0.347-1.589-1.051-2.709-2.11-3.361v0c-0.988-0.633-2.091-0.817-3.31-0.55v0c-1.621 0.354-2.902 1.13-3.843 2.328v0c-0.933 1.264-1.171 2.943-0.713 5.038v0l2.129 9.736c0.103 0.473 0.013 0.867-0.272 1.18-0.286 0.307-0.63 0.505-1.032 0.593v0c-0.409 0.089-0.777 0.037-1.104-0.156-0.321-0.195-0.53-0.513-0.627-0.954z" fill="#ffffff" data-fill-palette-color="primary"></path><path d="M219.173 252.718l-0.985-1.521c-0.119 3.003-1.427 5.313-3.923 6.929v0c-2.262 1.465-4.616 1.712-7.063 0.743v0c-2.157-0.912-3.987-2.53-5.491-4.853v0c-2.522-3.894-2.923-7.347-1.205-10.358v0c0.557-1.057 1.276-1.87 2.156-2.44 0.886-0.574 1.654-1 2.304-1.279 0.644-0.275 1.322-0.437 2.033-0.486v0c1.46-0.163 2.79 0.047 3.991 0.63v0l-5.586-8.624c-0.281-0.435-0.339-0.84-0.171-1.217 0.167-0.377 0.426-0.679 0.777-0.907v0c0.345-0.224 0.71-0.326 1.095-0.306 0.385 0.02 0.717 0.247 0.999 0.682v0l13.768 21.259c0.263 0.407 0.317 0.807 0.161 1.201-0.16 0.388-0.357 0.658-0.591 0.809-0.228 0.148-0.438 0.252-0.628 0.312-0.19 0.06-0.405 0.065-0.644 0.014v0c-0.42-0.013-0.752-0.209-0.997-0.588zM213.466 255.738v0c3.543-2.295 3.837-5.723 0.882-10.286v0c-1.898-2.93-4.025-4.273-6.381-4.028v0c-0.892 0.088-1.804 0.433-2.734 1.035-0.93 0.603-1.582 1.282-1.954 2.037-0.378 0.759-0.572 1.577-0.582 2.452v0c0.008 1.6 0.577 3.272 1.706 5.016v0c1.671 2.579 3.511 4.084 5.521 4.514v0c1.169 0.279 2.35 0.032 3.542-0.74z" fill="#ffffff" data-fill-palette-color="primary"></path><path d="M246.464 210.486v0c0.585 0.437 0.653 1.011 0.206 1.72v0l-8.515 11.386c2.911 2.003 5.569 2.262 7.972 0.778v0c0.634-0.438 1.229-1.029 1.786-1.773v0c1.161-1.552 1.775-3.559 1.841-6.02v0c0.093-0.701 0.43-1.096 1.01-1.184v0c0.293-0.038 0.502 0.032 0.628 0.208v0c0.388 0.29 0.591 0.595 0.608 0.915v0c0.389 2.661-0.362 5.228-2.253 7.701v0c-1.701 2.275-3.805 3.553-6.311 3.834v0c-2.681 0.415-5.268-0.309-7.761-2.173v0c-2.302-1.721-3.724-3.775-4.267-6.163v0c-0.666-2.578-0.089-5.085 1.731-7.519v0c1.825-2.44 3.947-3.749 6.369-3.928v0c2.239-0.223 4.558 0.516 6.956 2.218zM236.515 222.228l7.363-9.846c-1.557-1.032-3.149-1.468-4.777-1.31v0c-1.512 0.171-2.848 1.032-4.008 2.584v0c-0.994 1.329-1.345 2.835-1.055 4.52v0c0.355 1.608 1.181 2.959 2.477 4.052z" fill="#ffffff" data-fill-palette-color="primary"></path><path d="M251.182 181.533l1.668 0.568c-2.055-1.583-2.632-3.701-1.729-6.352v0c0.167-0.49 0.43-0.811 0.79-0.961 0.36-0.151 0.697-0.173 1.011-0.066 0.308 0.105 0.561 0.328 0.761 0.669 0.193 0.339 0.178 0.835-0.044 1.489-0.225 0.66-0.316 1.361-0.275 2.105 0.035 0.741 0.228 1.41 0.579 2.006v0c0.779 1.254 2.051 2.181 3.817 2.782v0l9.236 3.145c0.459 0.156 0.749 0.437 0.87 0.843 0.115 0.404 0.129 0.734 0.041 0.992-0.09 0.264-0.188 0.469-0.293 0.615-0.106 0.146-0.268 0.273-0.488 0.381v0c-0.295 0.229-0.672 0.265-1.131 0.109v0l-15.815-5.384c-0.427-0.145-0.729-0.413-0.904-0.802-0.182-0.392-0.198-0.807-0.049-1.247 0.15-0.44 0.408-0.734 0.774-0.883 0.36-0.151 0.753-0.154 1.181-0.009z" fill="#ffffff" data-fill-palette-color="primary"></path><path d="M3.728 144.153c0-5.978 4.846-10.824 10.823-10.824 5.978 0 10.824 4.846 10.824 10.824 0 5.978-4.846 10.824-10.824 10.824-5.978 0-10.824-4.846-10.823-10.824z" fill="#ffffff" data-fill-palette-color="primary"></path><path d="M254.625 144.153c0-5.978 4.846-10.824 10.824-10.824 5.978 0 10.824 4.846 10.823 10.824 0 5.978-4.846 10.824-10.823 10.824-5.978 0-10.824-4.846-10.824-10.824z" fill="#ffffff" data-fill-palette-color="primary"></path></g><g id="text-1"></g></svg></g></svg></g></svg></g></svg></g><defs></defs></svg><rect width="280" height="280" fill="none" stroke="none" visibility="hidden"></rect></g></svg></g></svg>